<svg version="1.2" xmlns="http://www.w3.org/2000/svg" viewBox="0 0 986 468" width="640" height="304">
	<title>logo BIROCO</title>
	<defs>
		<clipPath clipPathUnits="userSpaceOnUse" id="cp1">
			<path d="m-324-351h1684v1191h-1684z"/>
		</clipPath>
	</defs>
	<style>
		.s0 { fill: #053f7f } 
		.s1 { fill: #ffffff } 
	</style>
	<g id="Page 1" clip-path="url(#cp1)">
		<path id="Path 1" class="s0" d="m986.1 467.2h-985v-467.1h985z"/>
		<path id="Path 2" class="s1" d="m921.3 441.6h-855.5c-20.6 0-37.3-16.8-37.3-37.4v-336.8c0-20.6 16.7-37.3 37.3-37.3h855.5c20.6 0 37.4 16.7 37.4 37.3v336.8c0 20.6-16.8 37.4-37.4 37.4zm-855.5-407.5c-18.4 0-33.3 14.9-33.3 33.3v336.8c0 18.4 14.9 33.3 33.3 33.3h855.5c18.4 0 33.4-14.9 33.4-33.3v-336.8c0-18.4-15-33.3-33.4-33.3z"/>
		<path id="Path 3" fill-rule="evenodd" class="s1" d="m235.6 169.6q10.8 1 19.6 5.5 3.7 1.9 7.3 4.9 3.6 3 6.3 7.3 2.8 4.3 4.5 9.9 1.8 5.6 1.8 12.8 0 15.3-5.5 24.2-5.4 9-12.7 13.6-7.2 4.7-14.4 6.1-7.2 1.4-10.8 1.4-2.6 0-8.4-0.1-5.7-0.1-13.2-0.1-7.5 0-15.9-0.1-8.3-0.1-15.7-0.1-11.7 0-17.2 0.3-5.4 0.4-6.6 0.4-4.6 0-4.6-2.2 0-2.8 2.6-3.9 2.5-1.1 5.6-2.9 3.1-1.8 5.8-5.5 2.7-3.7 2.7-12v-123.7q0-2.8-1-4.4-0.9-1.5-2.9-2.8-1.9-1.3-5.6-1.3-3.2 0-4.4-0.6-1.2-0.6-1.2-1.6 0-1.7 2.1-3.1 2.1-1.4 4.2-1.4 7.1-0.5 15.5-1.2 7.1-0.5 16.6-1 9.5-0.5 20.5-0.5 10.9 0 20.4 3.5 9.4 3.5 16.5 9.3 7 5.9 11.1 13.5 4 7.6 4 16.2 0 12.4-4.3 20.1-4.2 7.6-9.3 11.9-6 5-13.4 7.6zm-46.9-6.9q0.7 0.7 1.8 1.2 1.2 0.5 2.8 0.9 1.6 0.3 4.4 0.3h15.7q7.2-0.9 12.9-4.8 4.9-3.3 8.9-9.7 4.1-6.5 4.1-18.7 0-9.5-2.7-16.3-2.6-6.8-6.4-11-3.9-4.2-8.4-6.1-4.5-1.9-8.2-1.9-3.9 0-8.6 0.1-4.8 0.2-8.4 0.2-2.6 0-4.1 0.5-1.5 0.6-2.4 1.1-0.9 1-1.4 1.7zm29.1 84q4.4 0 10.3-1.7 5.9-1.6 11.2-5.7 5.3-4 8.9-10.7 3.5-6.7 3.6-16.7-0.1-7.4-1.8-14.2-1.7-6.8-5.5-12.1-3.8-5.2-9.8-8.5-6-3.2-14.4-3.2h-20.7q-3.7 0-5.8 0.6-2.1 0.6-3.3 1.1-1.3 0.7-1.8 1.4v66.8q0 0.5 3.1 1 3.1 0.5 7.6 1 4.5 0.4 9.6 0.7 5.1 0.2 8.8 0.2zm81.8-129.1q-0.7-0.7-0.7-1.7 0-0.9 0.7-1.7l10.4-10.9q0.6-0.8 1.6-0.8 0.9 0 1.6 0.8l10.4 10.9q0.7 0.8 0.7 1.7 0 1-0.7 1.7l-10.4 10.5q-0.7 0.7-1.6 0.7-1 0-1.6-0.7zm31.4 135.1q1.1 1.2 1.1 1.6 0 0.5-0.9 1-0.5 0.2-0.7 0.2h-10.6q-4 0-7.5-0.1-3.6-0.1-4.1-0.1-0.4 0-3.4 0.2-3 0.3-6.3 0.3-3 0-5.3-0.4-2.3-0.3-2.3-1.1 0-1.9 1.9-2.6 1.8-0.7 3.9-1.8 2.1-1 3.9-3.4 1.9-2.4 1.9-7.7v-50.8q0-0.7-0.2-3.6-0.1-2.8-0.8-6.4-0.7-3.6-2.3-6.7-1.6-3.1-4.8-4.3-2.1-0.7-2.1-2.2 0-1.1 1.4-2.7 1.4-1.5 3.2-2.7 2.1-1.5 4.6-3.1 4.4-2.2 8.3-4.1 3.3-1.7 6.5-3 3.2-1.3 4.6-1.3 0.7 0 0.7 0.5v92.8q0 5 1.1 7.2 1 2.1 2.5 2.8 1.5 0.8 3.1 0.8 1.6 0 2.6 0.7zm65.3-101.2q9 0 14.2 2 5.2 1.9 8 4.7 2.8 2.8 3.6 5.8 0.8 3 0.8 5.1 0 0.8-0.1 1.1-0.2 0.4-0.2 0.9v0.7l-1.6 9.8q-1.8 0.7-3.7 1.4-1.6 0.5-3.5 0.9-2 0.5-3.9 0.5-2.7 0-4.8-1.3-2.1-1.3-2.1-5.4 0-8.8-2.5-14-2.6-5.3-10.9-5.8-4.6 0-7.6 2.9-3 2.9-4.7 6.8-1.8 3.9-2.3 8.3-0.6 4.5-0.6 7.6v58.2q0 6.2 1.6 8.2 1.6 2.1 3.6 2.4 1.9 0.4 3.6 0.5 1.6 0.1 1.6 2.3 0 0.7-1 1.2-0.4 0.2-0.6 0.2h-10.7q-3.9 0-7.4-0.1-3.4-0.1-3.9-0.1-0.5 0-3 0.1-2.5 0.1-5.5 0.1-3.3 0-6.2-0.2-2.8-0.3-2.8-1.2l0.2-0.3h-0.2q0-1.9 1.8-2.5 1.9-0.6 3.9-1.8 2.1-1.2 4-3.6 1.8-2.3 1.8-7.8v-53.7q0-2.9-0.7-6.5-0.7-3.6-2.3-6.9-1.6-3.3-4.8-4.5-2.4-0.7-2.4-2.2 0-1.2 1.4-2.6 1.4-1.4 3.3-2.6 2-1.5 4.6-3.1 4.4-2.4 8.3-4.3 3.2-1.7 6.5-3 3.2-1.3 4.6-1.3 0.7 0 0.7 0.5v16.9q0 0.2 0.4-1.7 0.5-1.9 2.7-4.5 2.2-2.6 6.6-5 4.4-2.4 12.2-3.1zm84.5-1.5q10 0 18.8 4.2 8.7 4.2 15.3 11.6 6.6 7.5 10.4 17.3 3.8 9.8 3.8 20.8 0 11.2-3.8 20.9-3.8 9.7-10.4 17.1-6.6 7.4-15.3 11.6-8.8 4.2-18.8 4.2-9.9 0-18.5-4.2-8.7-4.2-15.3-11.6-6.6-7.4-10.4-17.1-3.8-9.7-3.8-20.9 0-11 3.8-20.8 3.8-9.8 10.4-17.3 6.6-7.4 15.3-11.6 8.6-4.2 18.5-4.2zm1.7 100q5.3-0.2 9.8-3.8 4.5-3.5 7.8-9.6 3.4-6.1 5.3-14.4 2-8.2 2-17.5 0-10-2.2-19-2.2-8.9-5.9-15.6-3.7-6.7-8.6-10.6-5-4-10.5-4-5.6 0-10.2 3.5-4.6 3.5-8.1 9.5-3.5 6.1-5.4 14.4-2 8.2-2 17.7 0 10.6 2.3 19.6 2.3 9.1 6.1 15.7 3.9 6.5 8.9 10.3 5.1 3.9 10.7 3.8zm207.2-36.9c0.8 1.3 1.2 2.9 1.2 5.2 0 2.4-0.2 4.8-0.5 7.2-0.4 2.3-0.8 4.4-1.3 6.3-0.5 2.1-1.2 3.8-1.9 5.1-1 1.8-2.3 2.7-3.4 3.1-5.4 4.1-10.7 7.6-15.7 10.3-5.3 2.9-10.6 5.2-15.8 6.9-5.3 1.7-10.6 2.9-16 3.5-5.2 0.7-10.8 1-16.7 1-3.5 0-7.9-0.5-13.4-1.6-5.4-1.1-11.2-2.9-17.3-5.4-6.1-2.5-12.3-5.9-18.3-10.1-6.2-4.3-11.9-9.6-16.9-15.9-5-6.3-9.1-13.8-12.3-22.4-3.2-8.6-4.8-18.7-4.8-30 0-11.2 1.6-21.5 4.5-30.6 3-9 7-17.1 11.9-24.1 4.9-7 10.6-13.1 16.9-18.1 6.2-4.9 12.7-9.1 19.2-12.3 6.6-3.2 13.2-5.6 19.6-7.2 6.5-1.6 12.4-2.4 17.6-2.4 1.2 0 2.9 0.1 5.8 0.2 2.7 0.2 5.8 0.4 9.4 0.8 3.6 0.3 7.5 0.7 11.4 1.3 4 0.6 7.9 1.2 11.6 1.9 3.8 0.8 7.2 1.7 10.4 2.7 3.4 1.1 6.1 2.3 8 3.7l1.3 0.9 6.8 32.6-0.7 3.2c-1 5.3-4.4 5.8-5.8 5.8-1.7 0-4.2-0.6-6.6-3.8l-0.1-0.2-0.1-0.2c-5-8.4-11.1-15.6-18.3-21.3-6.9-5.4-14.9-8.6-24-9.3h-8.8c-9.2 0-17 1.5-23.2 4.5-6.4 3-11.7 6.9-15.9 11.5-4.3 4.8-7.7 10-10.1 15.7-2.5 5.9-4.4 11.6-5.7 17.1-1.2 5.5-2 10.5-2.3 15-0.3 4.6-0.5 7.9-0.5 9.9 0 11.3 1.7 21.6 5.1 30.4 3.3 8.8 7.7 16.3 13.1 22.5 5.2 6 11.3 10.7 17.9 13.9 6.5 3.1 13.1 4.7 19.5 4.7 10.4 0 19.1-1.7 26-5.1 7-3.4 12.7-7.2 16.9-11.3 4.2-4.1 7.4-7.8 9.3-11.1 3.2-5.4 5-7.6 7.8-7.6h0.9l0.8 0.3q2.3 1 3.5 2.8zm182.9-41.6c0 12.5-2.3 24.3-6.9 35.2-4.6 10.8-10.8 20.5-18.6 28.6-7.8 8.2-17.2 14.7-27.8 19.4-10.7 4.8-22.2 7.2-34.3 7.2-12.1 0-23.6-2.4-34.2-7.2-10.5-4.7-19.8-11.2-27.7-19.4-7.7-8.1-14-17.7-18.6-28.6-4.6-10.9-6.9-22.7-6.9-35.2 0-12.4 2.3-24.3 6.9-35.2 4.6-10.8 10.9-20.4 18.7-28.5 7.8-8.1 17.1-14.6 27.6-19.3 10.6-4.8 22.1-7.2 34.2-7.2 12.1 0 23.6 2.4 34.3 7.2 10.6 4.7 19.9 11.2 27.8 19.3 7.8 8.1 14 17.7 18.6 28.5 4.6 10.9 6.9 22.8 6.9 35.2zm-31.7 57.9c7.1-7.4 12.8-16.1 17-26 4.1-9.9 6.2-20.6 6.2-31.9 0-11.3-2.1-22-6.2-31.9-4.2-9.9-9.9-18.6-17-25.9-7-7.3-15.5-13.1-25.1-17.4-6.2-2.8-12.7-4.7-19.5-5.7q7.5 1.7 14.4 5.6c7.7 4.4 14.5 10.5 20.2 18 5.6 7.4 10.1 16.2 13.3 26.2 3.2 9.9 4.9 20.6 4.9 31.8 0 11.2-1.7 21.9-4.9 31.8-3.2 9.9-7.7 18.6-13.3 26.1-5.7 7.5-12.5 13.5-20.2 17.9q-2.9 1.6-5.9 2.9 5.7-1.5 11-3.9c9.6-4.3 18.1-10.2 25.1-17.6zm-76.7 11.2c6.6 3.8 13.6 5.7 21 5.7 7.6 0 14.7-1.9 21.2-5.7 6.7-3.8 12.7-9.1 17.7-15.7 5.1-6.7 9.1-14.6 12-23.6 3-9 4.5-18.8 4.5-29.1 0-10.3-1.5-20.1-4.5-29.2-2.9-9.1-6.9-17-12-23.7-5-6.6-11-11.9-17.7-15.7-6.5-3.8-13.7-5.6-21.2-5.6-7.3 0-14.4 1.8-21 5.6-6.7 3.8-12.6 9.1-17.6 15.7-5.1 6.7-9.1 14.6-12.1 23.7-2.9 9-4.4 18.9-4.4 29.2 0 10.4 1.5 20.1 4.4 29.1 3 9 7 16.9 12.1 23.6 5 6.6 10.9 11.9 17.6 15.7zm-425.5 109.2c-0.5 0.3-1.2 0.5-1.8 0.6-4.9 0.5-9.9 1.1-14.9 1.4-4.5 0.2-8.7-0.8-12.5-3.4-0.2-0.1-0.5-0.2-0.8-0.3-0.7 3-1.4 6-2.2 8.9-1.1 3.8-2.5 7.5-4.8 10.7-1 1.4-2.2 2.7-3.5 3.9-1 0.9-2.3 1.4-3.6 0.7-1.3-0.7-1.6-1.9-1.6-3.2 0-0.9 0-1.8 0.2-2.6 1.5-7.1 4-13.9 7.7-20.2 0.8-1.3 1.7-2.5 2.6-3.6 0.6-0.6 1.3-1.2 2.1-1.5 1.7-0.8 3.6 0.4 3.3 2.3-0.2 1.7 0.6 2.5 1.8 3.2 2.6 1.9 5.6 2.9 8.8 2.7 4.3-0.3 8.7-1 13-1.6 1.5-0.3 3-0.9 4.5-1.3 1.1-0.4 2-0.1 2.4 0.8 0.4 1 0.1 1.9-0.7 2.5zm-33.7-3.8c-4.1 3.9-9.8 19-8.5 22.5 4-4.1 9.2-17.6 8.5-22.5z"/>
		<path id="Path 4" class="s1" d="m338.7 349.8c-0.5 0.3-1.2 0.6-1.8 0.7-4.9 0.5-9.9 1-14.9 1.3-4.4 0.3-8.7-0.8-12.5-3.3-0.2-0.2-0.5-0.3-0.8-0.4-0.7 3.1-1.4 6.1-2.2 9-1.1 3.8-2.5 7.5-4.8 10.7-1 1.4-2.2 2.7-3.5 3.8-1 0.9-2.2 1.5-3.6 0.7-1.3-0.7-1.6-1.9-1.6-3.2 0-0.8 0.1-1.7 0.2-2.6 1.6-7.1 4-13.9 7.7-20.1 0.8-1.3 1.7-2.5 2.7-3.7 0.5-0.6 1.2-1.2 2-1.5 1.7-0.7 3.6 0.5 3.4 2.3-0.3 1.7 0.6 2.5 1.7 3.3 2.6 1.9 5.6 2.9 8.8 2.6 4.4-0.3 8.7-0.9 13-1.6 1.5-0.2 3-0.8 4.5-1.3 1.1-0.3 2-0.1 2.4 0.8 0.4 1 0.2 1.9-0.7 2.5zm-33.6-3.8c-4.2 4-9.9 19-8.6 22.5 4.1-4 9.2-17.6 8.6-22.5z"/>
		<path id="Path 5" class="s1" d="m369.1 352.2c-0.4 0.4-0.9 0.8-1.5 1.1-4 2.9-8.5 4.9-13.2 6.5q-10.7 3.6-21.4 7.1c-2.6 0.8-4 2.8-3.8 5.6 0.1 1.7 0.4 3.4 0.4 5.2 0.1 5.7-0.7 11.3-2 16.8-1.1 5.2-2.5 10.3-4 15.3-0.5 1.8-1.5 3.5-2.4 5.1-0.6 1.1-1.6 1.9-2.9 1.6-1.3-0.4-1.6-1.5-1.8-2.6-0.6-2.7-0.2-5.5 0.3-8.2 1.5-8.5 4.3-16.6 7-24.7 0.7-2 1.3-4.1 2.2-6 1.1-2.2 0.6-4.3-0.3-6.4-0.1-0.2-0.3-0.5-0.5-0.8-0.6-1.3-0.1-2.1 1.3-2.2 1 0 1.9 0.2 3 0.3 0.7-1.7 1.3-3.1 2-4.5 3.1-6.5 6.2-12.9 9.5-19.3 1-2.1 2.4-4 3.7-6 0.5-0.8 1.2-1.5 1.9-2.1 1.4-1.3 2.9-1.4 3.9-0.2 1 1.1 1 3.5-0.1 4.5-0.9 0.9-1.8 0.9-3.9-0.4-0.9 1.3-2 2.5-2.8 3.9-4 6.1-7.2 12.5-10.2 19.1-0.6 1.4-1.2 2.8-2 4.5 1.1-0.1 1.9-0.1 2.7-0.3 8.4-1.9 16.5-4.8 24.2-8.7 2.7-1.3 5-3.5 7.4-5.3 0.5-0.4 0.9-1.1 1.4-1.2 0.6-0.1 1.4 0 1.9 0.4 0.7 0.4 0.5 1.3 0 1.9zm-42.5 25.8c-0.2 0.6-0.4 1-0.6 1.5-2.1 6.8-4.5 13.7-6.4 20.7-0.9 3.5-1.2 7.2-1.6 10.9-0.1 1 0.3 2.1 0.4 3.3 3.9-3.6 9.7-29.9 8.2-36.4z"/>
		<path id="Path 6" class="s1" d="m369.1 352.2c-0.4 0.4-0.9 0.8-1.5 1.1-4 2.9-8.5 4.9-13.2 6.5q-10.7 3.6-21.4 7.1c-2.6 0.8-4 2.8-3.8 5.6 0.1 1.7 0.4 3.4 0.4 5.2 0.1 5.7-0.7 11.3-2 16.8-1.1 5.2-2.5 10.3-4 15.3-0.5 1.8-1.5 3.5-2.4 5.1-0.6 1.1-1.6 1.9-2.9 1.6-1.3-0.4-1.6-1.5-1.8-2.6-0.6-2.7-0.2-5.5 0.3-8.2 1.5-8.5 4.3-16.6 7-24.7 0.7-2 1.3-4.1 2.2-6 1.1-2.2 0.6-4.3-0.3-6.4-0.1-0.2-0.3-0.5-0.5-0.8-0.6-1.3-0.1-2.1 1.3-2.2 1 0 1.9 0.2 3 0.3 0.7-1.7 1.3-3.1 2-4.5 3.1-6.5 6.2-12.9 9.5-19.3 1-2.1 2.4-4 3.7-6 0.5-0.8 1.2-1.5 1.9-2.1 1.4-1.3 2.9-1.4 3.9-0.2 1 1.1 1 3.5-0.1 4.5-0.9 0.9-1.8 0.9-3.9-0.4-0.9 1.3-2 2.5-2.8 3.9-4 6.1-7.2 12.5-10.2 19.1-0.6 1.4-1.2 2.8-2 4.5 1.1-0.1 1.9-0.1 2.7-0.3 8.4-1.9 16.5-4.8 24.2-8.7 2.7-1.3 5-3.5 7.4-5.3 0.5-0.4 0.9-1.1 1.4-1.2 0.6-0.1 1.4 0 1.9 0.4 0.7 0.4 0.5 1.3 0 1.9zm-42.5 25.8c-0.2 0.6-0.4 1-0.6 1.5-2.1 6.8-4.5 13.7-6.4 20.7-0.9 3.5-1.2 7.2-1.6 10.9-0.1 1 0.3 2.1 0.4 3.3 3.9-3.6 9.7-29.9 8.2-36.4z"/>
		<path id="Path 7" class="s1" d="m400.3 352.2c-0.4 0.4-1 0.8-1.5 1.1-4.1 2.9-8.6 4.9-13.3 6.5q-10.6 3.6-21.3 7.1c-2.6 0.8-4 2.8-3.9 5.6 0.2 1.7 0.4 3.4 0.5 5.2 0 5.7-0.8 11.3-2 16.8-1.1 5.2-2.6 10.3-4.1 15.3-0.5 1.8-1.5 3.5-2.4 5.1-0.6 1.1-1.5 1.9-2.9 1.6-1.2-0.4-1.5-1.5-1.8-2.6-0.5-2.7-0.1-5.5 0.3-8.2 1.5-8.5 4.3-16.6 7.1-24.7 0.7-2 1.3-4.1 2.2-6 1-2.2 0.6-4.3-0.3-6.4-0.1-0.2-0.4-0.5-0.5-0.8-0.6-1.3-0.2-2.1 1.3-2.2 0.9 0 1.8 0.2 3 0.3 0.7-1.7 1.3-3.1 2-4.5 3.1-6.5 6.2-12.9 9.4-19.3 1.1-2.1 2.5-4 3.8-6 0.5-0.8 1.1-1.5 1.8-2.1 1.5-1.3 3-1.4 4-0.2 1 1.1 0.9 3.5-0.2 4.5-0.9 0.9-1.7 0.9-3.8-0.4-1 1.3-2 2.5-2.9 3.9-3.9 6.1-7.2 12.5-10.2 19.1-0.6 1.4-1.1 2.8-1.9 4.5 1.1-0.1 1.9-0.1 2.6-0.3 8.4-1.9 16.5-4.8 24.3-8.7 2.6-1.3 4.9-3.5 7.4-5.3 0.5-0.4 0.9-1.1 1.4-1.2 0.6-0.1 1.4 0 1.9 0.4 0.6 0.4 0.5 1.3 0 1.9zm-42.5 25.8c-0.3 0.6-0.5 1-0.6 1.5-2.2 6.8-4.5 13.7-6.4 20.7-1 3.5-1.2 7.2-1.6 10.9-0.2 1 0.2 2.1 0.4 3.3 3.8-3.6 9.7-29.9 8.2-36.4z"/>
		<path id="Path 8" class="s1" d="m400.3 352.2c-0.4 0.4-1 0.8-1.5 1.1-4.1 2.9-8.6 4.9-13.3 6.5q-10.6 3.6-21.3 7.1c-2.6 0.8-4 2.8-3.9 5.6 0.2 1.7 0.4 3.4 0.5 5.2 0 5.7-0.8 11.3-2 16.8-1.1 5.2-2.6 10.3-4.1 15.3-0.5 1.8-1.5 3.5-2.4 5.1-0.6 1.1-1.5 1.9-2.9 1.6-1.2-0.4-1.5-1.5-1.8-2.6-0.5-2.7-0.1-5.5 0.3-8.2 1.5-8.5 4.3-16.6 7.1-24.7 0.7-2 1.3-4.1 2.2-6 1-2.2 0.6-4.3-0.3-6.4-0.1-0.2-0.4-0.5-0.5-0.8-0.6-1.3-0.2-2.1 1.3-2.2 0.9 0 1.8 0.2 3 0.3 0.7-1.7 1.3-3.1 2-4.5 3.1-6.5 6.2-12.9 9.4-19.3 1.1-2.1 2.5-4 3.8-6 0.5-0.8 1.1-1.5 1.8-2.1 1.5-1.3 3-1.4 4-0.2 1 1.1 0.9 3.5-0.2 4.5-0.9 0.9-1.7 0.9-3.8-0.4-1 1.3-2 2.5-2.9 3.9-3.9 6.1-7.2 12.5-10.2 19.1-0.6 1.4-1.1 2.8-1.9 4.5 1.1-0.1 1.9-0.1 2.6-0.3 8.4-1.9 16.5-4.8 24.3-8.7 2.6-1.3 4.9-3.5 7.4-5.3 0.5-0.4 0.9-1.1 1.4-1.2 0.6-0.1 1.4 0 1.9 0.4 0.6 0.4 0.5 1.3 0 1.9zm-42.5 25.8c-0.3 0.6-0.5 1-0.6 1.5-2.2 6.8-4.5 13.7-6.4 20.7-1 3.5-1.2 7.2-1.6 10.9-0.2 1 0.2 2.1 0.4 3.3 3.8-3.6 9.7-29.9 8.2-36.4z"/>
		<path id="Path 9" class="s1" d="m406.3 335.4c-0.8-0.9-0.6-2-0.1-3.1 0.5-1.1 1-2.3 2.4-2.5 1.3 0 2.1 1.1 1.9 2.3-0.2 1-0.5 2-0.9 2.9-0.6 1.4-2.3 1.6-3.3 0.4zm32.3 14.6c-2.6 1.9-19.1 14.7-29.3 16.8-0.9 0.2-1.8 0.3-3.3 0.4-1-0.2-2.6-0.4-4-1-2.6-1-4.3-3-4.7-5.8-0.7-4.7 0.7-9 2.5-13.3q0.1-0.2 0.2-0.4c0.9-1.1 2.2-1.3 3.1-0.6 0.9 0.7 1 1.9 0.1 2.9-2.1 2.3-2.8 5.1-3.3 8q-0.2 0.7-0.2 1.4c-0.1 3.6 1.9 6.1 5.5 6.2 1.6 0.1 3.3-0.1 4.9-0.5 9-2.4 18-9.4 25.6-15.6 0.6-0.4 1.2-0.8 1.8-1 0.8-0.4 1.2-0.6 1.7 0.2 0.5 0.7 0 1.7-0.6 2.3z"/>
		<path id="Path 10" class="s1" d="m406.3 335.4c-0.8-0.9-0.6-2-0.1-3.1 0.5-1.1 1-2.3 2.4-2.5 1.3 0 2.1 1.1 1.9 2.3-0.2 1-0.5 2-0.9 2.9-0.6 1.4-2.3 1.6-3.3 0.4zm32.3 14.6c-2.6 1.9-19.1 14.7-29.3 16.8-0.9 0.2-1.8 0.3-3.3 0.4-1-0.2-2.6-0.4-4-1-2.6-1-4.3-3-4.7-5.8-0.7-4.7 0.7-9 2.5-13.3q0.1-0.2 0.2-0.4c0.9-1.1 2.2-1.3 3.1-0.6 0.9 0.7 1 1.9 0.1 2.9-2.1 2.3-2.8 5.1-3.3 8q-0.2 0.7-0.2 1.4c-0.1 3.6 1.9 6.1 5.5 6.2 1.6 0.1 3.3-0.1 4.9-0.5 9-2.4 18-9.4 25.6-15.6 0.6-0.4 1.2-0.8 1.8-1 0.8-0.4 1.2-0.6 1.7 0.2 0.5 0.7 0 1.7-0.6 2.3z"/>
		<path id="Path 11" class="s1" d="m477.3 346.4c0.6 1.9-21.6 10.5-31 13.7-2.2 0.7-4.6 1.3-7 1.8-0.8 0.2-1.7 0.1-2.5-0.1-2.3-0.4-3.5-2-3.3-4.4 0.1-0.7 0.2-1.5 0.5-2.3 1.9-5.4 5.2-9.8 10-12.9 1.9-1.2 3.5-1.3 4.4-0.4 1.2 1.5 0.4 2.8-0.3 4.2-0.4 0.8-0.8 1.7-1.3 2.5-0.6 1-1.5 1.3-2.4 0.9-0.9-0.5-1.2-1.5-0.7-2.7 0.2-0.4 0.5-0.8 0.8-1.3-0.2-0.1-0.3-0.1-0.3-0.1-4.6 2.8-7.7 6.8-9.2 12-0.7 2.2 0.5 3.5 2.8 3.5 1.4-0.1 2.8-0.3 4.1-0.8 2.6-0.9 22.1-8.9 29.4-11.8 1.2-0.5 2.4-1.1 3.6-1.7 1.3-0.7 1.9-1 2.4-0.1z"/>
		<path id="Path 12" class="s1" d="m477.3 346.4c0.6 1.9-21.6 10.5-31 13.7-2.2 0.7-4.6 1.3-7 1.8-0.8 0.2-1.7 0.1-2.5-0.1-2.3-0.4-3.5-2-3.3-4.4 0.1-0.7 0.2-1.5 0.5-2.3 1.9-5.4 5.2-9.8 10-12.9 1.9-1.2 3.5-1.3 4.4-0.4 1.2 1.5 0.4 2.8-0.3 4.2-0.4 0.8-0.8 1.7-1.3 2.5-0.6 1-1.5 1.3-2.4 0.9-0.9-0.5-1.2-1.5-0.7-2.7 0.2-0.4 0.5-0.8 0.8-1.3-0.2-0.1-0.3-0.1-0.3-0.1-4.6 2.8-7.7 6.8-9.2 12-0.7 2.2 0.5 3.5 2.8 3.5 1.4-0.1 2.8-0.3 4.1-0.8 2.6-0.9 22.1-8.9 29.4-11.8 1.2-0.5 2.4-1.1 3.6-1.7 1.3-0.7 1.9-1 2.4-0.1z"/>
		<path id="Path 13" class="s1" d="m506 351.2c-0.6 0.5-14.9 9.2-24.2 9.9-2.1 0.1-4.4-0.2-6.4-0.8-2.6-0.7-4-2.6-4-5.5 0-1.7 0.3-3.1 1.3-4.6 1.3-1.9 2.6-4 4.5-5.4 1-0.7 2.1-1.4 3.3-1.7 1.4-0.5 2.9 0.2 3.6 1.4 0.9 1.3 0.8 2.6-0.1 3.7-0.9 1.1-1.9 2.2-3.1 2.8-2.6 1.5-5.2 2.8-8.1 4.2 0.2 2.4 1 3.5 3.3 4.3 2.9 0.9 5.9 0.6 8.8-0.2 7-1.8 13.4-5 19.4-9.1 0.9-0.6 1.6-1.5 2.4-2.3 1.1-1 1.6-1.3 2.3-0.5 0.8 0.7-1.5 2.8-3 3.8zm-30.8-0.7c2.4-0.8 4.5-2 6-4.3-2.8 0.3-4.5 2.1-6 4.3z"/>
		<path id="Path 14" fill-rule="evenodd" class="s1" d="m509 347.4c-0.7-0.8-1.2-0.5-2.3 0.5-0.8 0.8-1.5 1.7-2.4 2.3-6 4.1-12.4 7.3-19.4 9.1-2.9 0.8-5.9 1.1-8.8 0.2-2.3-0.8-3.1-1.9-3.3-4.3 2.9-1.4 5.5-2.7 8.1-4.2 1.2-0.6 2.2-1.7 3.1-2.8 0.9-1.1 1-2.4 0.1-3.7-0.7-1.2-2.2-1.9-3.6-1.4-1.2 0.3-2.3 1-3.3 1.7-1.9 1.4-3.2 3.5-4.5 5.4-1 1.5-1.3 2.9-1.3 4.6 0 2.9 1.4 4.8 4 5.5 2 0.6 4.3 0.9 6.4 0.8 9.3-0.7 23.6-9.4 24.2-9.9 1.5-1 3.8-3.1 3-3.8zm-27.8-1.2c-1.5 2.3-3.6 3.5-6 4.3 1.5-2.2 3.2-4 6-4.3zm99.3-0.1c-0.8-0.8-1.7-1-2.6-0.6-1.1 0.4-2.2 0.8-3.2 1.4-5 2.9-9.9 5.8-14.8 8.7-0.7 0.4-1.3 0.8-1.8 1-1.9-1.8-3.6-3.5-5.3-5.2-0.3-0.2-0.5-0.4-0.7-0.6-1.7-1.6-1.7-2.7-0.1-4.4 1.3-1.3 2.8-2.3 4.8-2.5q0.3 0.7 0.6 1.3c0.5 1 1.3 1.5 2.5 1.2 1.1-0.4 1.5-1.3 1.5-2.4 0.1-1.7-1-3.2-2.6-3.4-1.1-0.2-2.2-0.1-3.2 0.2-2.8 0.8-5 2.7-6.5 5.2q-1.8 3 0.6 5.6c1 1 2.1 1.9 3.2 2.8 1.2 1 2.3 2.1 3.1 3.7-0.7 0.5-1.4 1-2.1 1.6-2.3 1.9-4.7 3.8-6.9 6-1.1 1.1-1.9 2.7-2.4 4.2-0.6 1.8 0.6 3.3 2.6 3.3 0.7 0 1.6-0.1 2.2-0.4 4.7-2.5 8-6.1 9-11.4 0.2-1.2 0.5-1.9 1.5-2.5 2.3-1.2 4.4-2.7 6.7-3.9 4.3-2.1 8.2-5.1 13.2-5.9 1.3-0.3 1.7-2 0.7-3zm-33.5 24.9c0.2-2.7 5.2-7.7 9.3-9.3-0.7 4.5-5.7 9.6-9.3 9.3z"/>
		<path id="Path 15" class="s1" d="m579.8 349.1c-5 0.8-8.9 3.8-13.2 5.9-2.3 1.2-4.4 2.7-6.7 3.9-1 0.6-1.3 1.3-1.5 2.5-1 5.3-4.3 8.9-9 11.4-0.6 0.3-1.5 0.4-2.2 0.4-2 0-3.2-1.5-2.6-3.3 0.5-1.5 1.3-3.1 2.4-4.2 2.2-2.2 4.6-4.1 6.9-6 0.7-0.6 1.4-1.1 2.1-1.6-0.8-1.6-1.9-2.7-3.1-3.7-1.1-0.9-2.2-1.8-3.2-2.8q-2.4-2.6-0.6-5.6c1.5-2.5 3.7-4.4 6.5-5.2 1-0.3 2.1-0.4 3.2-0.2 1.6 0.2 2.7 1.7 2.6 3.4 0 1.1-0.4 2-1.5 2.4-1.2 0.3-2-0.2-2.5-1.2q-0.3-0.6-0.6-1.3c-2 0.2-3.5 1.2-4.8 2.5-1.6 1.7-1.6 2.8 0.1 4.4 0.2 0.2 0.4 0.4 0.7 0.6 1.7 1.7 3.4 3.4 5.3 5.2 0.5-0.2 1.1-0.6 1.8-1 4.9-2.9 9.8-5.8 14.8-8.7 1-0.6 2.1-1 3.2-1.4 0.9-0.4 1.8-0.2 2.6 0.6 1 1 0.6 2.7-0.7 3zm-23.5 12.6c-4.1 1.6-9.1 6.6-9.3 9.3 3.6 0.3 8.6-4.8 9.3-9.3z"/>
		<path id="Path 16" class="s1" d="m592.2 349.7c-1.3 1.1-2.1 1.9-3 2.6-2.1 1.7-4.2 3.3-6.4 4.9-1 0.7-2.2 1.1-3.4 1.4-2 0.4-3.5-0.7-3.7-2.7-0.3-3.8 0.8-7.3 2.8-10.5 0.9-1.5 2.5-1.7 3.7-0.8 1.4 1.1 1.4 3.3-0.2 3.7-1.9 0.5-2.2 2-2.7 3.4-0.3 1.1-0.5 2.3-0.9 3.8 0.9-0.3 2-0.8 2.4-1.1 1.4-1 2.5-1.5 3.9-2.6 2.2-1.8 4.4-3.8 6.6-5.6 0.9-0.8 1.9-1.7 3.1-0.9 1.2 0.8 0.7 2 0.4 3.1-0.6 3.3-1.4 5-1.8 8.4-0.4 2.1-0.4 4.4-0.3 6.6 0.2 3.1 2.2 4.3 5.1 3.1 1.5-0.6 4.3-2.1 5.5-3.1 4.7-3.8 14-13.7 15-15 0.4-0.5 1.9-1.7 2.7-1 0.8 0.9-0.9 1.9-1.2 2.4-0.6 1-11.5 13.6-18.2 17.5-1.3 0.7-2.9 1.3-4.4 1.7-3.5 0.9-6-0.9-6.4-4.6-0.2-1.7-0.1-3.6 0-5.4 0.4-3.4 0.9-5.3 1.4-9.3z"/>
		<path id="Path 17" class="s1" d="m592.2 349.7c-1.3 1.1-2.1 1.9-3 2.6-2.1 1.7-4.2 3.3-6.4 4.9-1 0.7-2.2 1.1-3.4 1.4-2 0.4-3.5-0.7-3.7-2.7-0.3-3.8 0.8-7.3 2.8-10.5 0.9-1.5 2.5-1.7 3.7-0.8 1.4 1.1 1.4 3.3-0.2 3.7-1.9 0.5-2.2 2-2.7 3.4-0.3 1.1-0.5 2.3-0.9 3.8 0.9-0.3 2-0.8 2.4-1.1 1.4-1 2.5-1.5 3.9-2.6 2.2-1.8 4.4-3.8 6.6-5.6 0.9-0.8 1.9-1.7 3.1-0.9 1.2 0.8 0.7 2 0.4 3.1-0.6 3.3-1.4 5-1.8 8.4-0.4 2.1-0.4 4.4-0.3 6.6 0.2 3.1 2.2 4.3 5.1 3.1 1.5-0.6 4.3-2.1 5.5-3.1 4.7-3.8 14-13.7 15-15 0.4-0.5 1.9-1.7 2.7-1 0.8 0.9-0.9 1.9-1.2 2.4-0.6 1-11.5 13.6-18.2 17.5-1.3 0.7-2.9 1.3-4.4 1.7-3.5 0.9-6-0.9-6.4-4.6-0.2-1.7-0.1-3.6 0-5.4 0.4-3.4 0.9-5.3 1.4-9.3z"/>
		<path id="Path 18" class="s1" d="m668.5 348.6c-0.1 0.9-0.8 1.3-1.6 1.4-0.3 0-0.7 0-1 0-7.3-0.5-14.5 0.4-21.7 1.7-1.5 0.3-2.4 1-3.3 2.3-3.8 6-8.4 11.1-14.2 15.2-1.5 1.1-3.1 2-4.7 2.8-1.8 0.9-3.7 1.3-5.7-0.1-5.5 9.3-9.8 18.7-12.1 28.9-0.1 0.7 0.1 1.6 0.3 2.2 0.8 1.9-0.4 4.9-2.2 5.6-1.1 0.5-2.2-0.1-2.4-1.4-0.2-0.6-0.2-1.4 0-2.1 0.7-3 1.2-6.2 2.1-9.2 4.9-16 10.9-31.7 16.8-47.4 1.1-2.8 2.1-5.6 3.2-8.4 0.4-0.9 0.8-1.9 1.4-2.7 0.5-0.6 1.4-1.1 2.1-1.3 1-0.2 1.9 0.6 2.1 1.5 0.2 1-0.2 1.9-1.2 2.1-1.5 0.2-2.1 1.2-2.5 2.4q-5.2 13.8-10.4 27.6c-0.1 0.2-0.1 0.5-0.1 1.2 0.7-1.1 1.1-1.8 1.6-2.5 4.6-7.5 9.7-14.7 15.5-21.4 2.2-2.5 4.7-4.8 7.2-7.1 1-1 2.3-1.7 3.6-2.2 2.6-1 4.6 0.4 4.5 3.2 0 1.9-0.6 3.7-1 5.6-0.3 0.9-0.7 1.9-1.2 3.1 1.7-0.3 3.1-0.7 4.5-0.9q8.4-1.1 16.8-2c0.7-0.1 1.4 0 2.1 0.1 0.9 0.2 1.6 0.7 1.5 1.8zm-31.1 5.6c-0.3-0.1-0.4-0.1-0.6-0.1q-0.3 0-0.6 0.1c-5.1 2.1-9.9 4.9-13.8 8.9-1.5 1.4-2.6 3.3-3.8 5.1-0.3 0.5-0.4 1.2-0.6 1.9 2.1 0.1 2.4 0 4.4-1.3 5.7-3.6 10.4-8.4 14.6-13.8 0.2-0.2 0.3-0.5 0.4-0.8zm5.9-10.9c0.4-1 0.6-2.2-0.1-3.6-0.8 0.3-1.6 0.4-2.3 0.8-1.1 0.7-2 1.5-2.9 2.4-4.4 4.1-8 8.8-11.5 13.6-0.2 0.2-0.2 0.5-0.4 1.2 4.4-2.8 8.5-4.9 12.9-6.5 0.6-0.3 1.2-0.8 1.5-1.4q1.5-3.2 2.8-6.5z"/>
		<path id="Path 19" class="s1" d="m668.5 348.6c-0.1 0.9-0.8 1.3-1.6 1.4-0.3 0-0.7 0-1 0-7.3-0.5-14.5 0.4-21.7 1.7-1.5 0.3-2.4 1-3.3 2.3-3.8 6-8.4 11.1-14.2 15.2-1.5 1.1-3.1 2-4.7 2.8-1.8 0.9-3.7 1.3-5.7-0.1-5.5 9.3-9.8 18.7-12.1 28.9-0.1 0.7 0.1 1.6 0.3 2.2 0.8 1.9-0.4 4.9-2.2 5.6-1.1 0.5-2.2-0.1-2.4-1.4-0.2-0.6-0.2-1.4 0-2.1 0.7-3 1.2-6.2 2.1-9.2 4.9-16 10.9-31.7 16.8-47.4 1.1-2.8 2.1-5.6 3.2-8.4 0.4-0.9 0.8-1.9 1.4-2.7 0.5-0.6 1.4-1.1 2.1-1.3 1-0.2 1.9 0.6 2.1 1.5 0.2 1-0.2 1.9-1.2 2.1-1.5 0.2-2.1 1.2-2.5 2.4q-5.2 13.8-10.4 27.6c-0.1 0.2-0.1 0.5-0.1 1.2 0.7-1.1 1.1-1.8 1.6-2.5 4.6-7.5 9.7-14.7 15.5-21.4 2.2-2.5 4.7-4.8 7.2-7.1 1-1 2.3-1.7 3.6-2.2 2.6-1 4.6 0.4 4.5 3.2 0 1.9-0.6 3.7-1 5.6-0.3 0.9-0.7 1.9-1.2 3.1 1.7-0.3 3.1-0.7 4.5-0.9q8.4-1.1 16.8-2c0.7-0.1 1.4 0 2.1 0.1 0.9 0.2 1.6 0.7 1.5 1.8zm-31.1 5.6c-0.3-0.1-0.4-0.1-0.6-0.1q-0.3 0-0.6 0.1c-5.1 2.1-9.9 4.9-13.8 8.9-1.5 1.4-2.6 3.3-3.8 5.1-0.3 0.5-0.4 1.2-0.6 1.9 2.1 0.1 2.4 0 4.4-1.3 5.7-3.6 10.4-8.4 14.6-13.8 0.2-0.2 0.3-0.5 0.4-0.8zm5.9-10.9c0.4-1 0.6-2.2-0.1-3.6-0.8 0.3-1.6 0.4-2.3 0.8-1.1 0.7-2 1.5-2.9 2.4-4.4 4.1-8 8.8-11.5 13.6-0.2 0.2-0.2 0.5-0.4 1.2 4.4-2.8 8.5-4.9 12.9-6.5 0.6-0.3 1.2-0.8 1.5-1.4q1.5-3.2 2.8-6.5z"/>
		<path id="Path 20" class="s1" d="m717.1 348.6c-0.1 0.9-0.7 1.3-1.6 1.4-0.3 0-0.6 0-0.9 0-7.3-0.5-14.5 0.4-21.7 1.7-1.5 0.3-2.5 1-3.3 2.3-3.8 6-8.5 11.1-14.3 15.2-1.4 1.1-3 2-4.6 2.8-1.8 0.9-3.7 1.3-5.8-0.1-5.4 9.3-9.8 18.7-12 28.9-0.2 0.7 0 1.6 0.3 2.2 0.7 1.9-0.4 4.9-2.2 5.6-1.2 0.5-2.3-0.1-2.5-1.4-0.1-0.6-0.1-1.4 0-2.1 0.7-3 1.3-6.2 2.2-9.2 4.8-16 10.8-31.7 16.8-47.4 1-2.8 2.1-5.6 3.1-8.4 0.4-0.9 0.8-1.9 1.5-2.7 0.5-0.6 1.3-1.1 2.1-1.3 0.9-0.2 1.9 0.6 2 1.5 0.2 1-0.2 1.9-1.1 2.1-1.5 0.2-2.1 1.2-2.6 2.4q-5.2 13.8-10.4 27.6c0 0.2 0 0.5-0.1 1.2 0.7-1.1 1.2-1.8 1.6-2.5 4.7-7.5 9.7-14.7 15.5-21.4 2.3-2.5 4.7-4.8 7.2-7.1 1-1 2.3-1.7 3.6-2.2 2.6-1 4.7 0.4 4.6 3.2-0.1 1.9-0.6 3.7-1.1 5.6-0.2 0.9-0.7 1.9-1.1 3.1 1.6-0.3 3-0.7 4.5-0.9q8.4-1.1 16.7-2c0.7-0.1 1.5 0 2.1 0.1 1 0.2 1.6 0.7 1.5 1.8zm-31.1 5.6c-0.2-0.1-0.4-0.1-0.5-0.1q-0.4 0-0.7 0.1c-5.1 2.1-9.8 4.9-13.7 8.9-1.5 1.4-2.6 3.3-3.8 5.1-0.4 0.5-0.4 1.2-0.7 1.9 2.1 0.1 2.4 0 4.4-1.3 5.8-3.6 10.5-8.4 14.7-13.8 0.1-0.2 0.2-0.5 0.3-0.8zm6-10.9c0.4-1 0.6-2.2-0.2-3.6-0.7 0.3-1.6 0.4-2.3 0.8-1 0.7-2 1.5-2.9 2.4-4.3 4.1-7.9 8.8-11.5 13.6-0.1 0.2-0.1 0.5-0.4 1.2 4.4-2.8 8.6-4.9 13-6.5 0.6-0.3 1.2-0.8 1.4-1.4q1.6-3.2 2.9-6.5z"/>
		<path id="Path 21" class="s1" d="m717.1 348.6c-0.1 0.9-0.7 1.3-1.6 1.4-0.3 0-0.6 0-0.9 0-7.3-0.5-14.5 0.4-21.7 1.7-1.5 0.3-2.5 1-3.3 2.3-3.8 6-8.5 11.1-14.3 15.2-1.4 1.1-3 2-4.6 2.8-1.8 0.9-3.7 1.3-5.8-0.1-5.4 9.3-9.8 18.7-12 28.9-0.2 0.7 0 1.6 0.3 2.2 0.7 1.9-0.4 4.9-2.2 5.6-1.2 0.5-2.3-0.1-2.5-1.4-0.1-0.6-0.1-1.4 0-2.1 0.7-3 1.3-6.2 2.2-9.2 4.8-16 10.8-31.7 16.8-47.4 1-2.8 2.1-5.6 3.1-8.4 0.4-0.9 0.8-1.9 1.5-2.7 0.5-0.6 1.3-1.1 2.1-1.3 0.9-0.2 1.9 0.6 2 1.5 0.2 1-0.2 1.9-1.1 2.1-1.5 0.2-2.1 1.2-2.6 2.4q-5.2 13.8-10.4 27.6c0 0.2 0 0.5-0.1 1.2 0.7-1.1 1.2-1.8 1.6-2.5 4.7-7.5 9.7-14.7 15.5-21.4 2.3-2.5 4.7-4.8 7.2-7.1 1-1 2.3-1.7 3.6-2.2 2.6-1 4.7 0.4 4.6 3.2-0.1 1.9-0.6 3.7-1.1 5.6-0.2 0.9-0.7 1.9-1.1 3.1 1.6-0.3 3-0.7 4.5-0.9q8.4-1.1 16.7-2c0.7-0.1 1.5 0 2.1 0.1 1 0.2 1.6 0.7 1.5 1.8zm-31.1 5.6c-0.2-0.1-0.4-0.1-0.5-0.1q-0.4 0-0.7 0.1c-5.1 2.1-9.8 4.9-13.7 8.9-1.5 1.4-2.6 3.3-3.8 5.1-0.4 0.5-0.4 1.2-0.7 1.9 2.1 0.1 2.4 0 4.4-1.3 5.8-3.6 10.5-8.4 14.7-13.8 0.1-0.2 0.2-0.5 0.3-0.8zm6-10.9c0.4-1 0.6-2.2-0.2-3.6-0.7 0.3-1.6 0.4-2.3 0.8-1 0.7-2 1.5-2.9 2.4-4.3 4.1-7.9 8.8-11.5 13.6-0.1 0.2-0.1 0.5-0.4 1.2 4.4-2.8 8.6-4.9 13-6.5 0.6-0.3 1.2-0.8 1.4-1.4q1.6-3.2 2.9-6.5z"/>
		<path id="Path 22" class="s1" d="m716.6 356.3c0 1.2-0.1 2.4 0.1 3.6 0.1 1.2 0.3 2.4 0.6 3.5 0.4 1.1 0.7 2.3 1.3 3.1q0.9 1.2 2.4 1.6c0.9 0.4 2.1 0.4 3.2 0.3 2.4-0.1 4.7-0.8 7-1.6 9.2-3.1 24.7-20.5 27.2-20.7 1.2-0.1 0.4 1.3-0.4 2-0.3 0.4-14.6 14.6-22.8 19.3-2.4 1.2-4.7 2.1-6.5 2.8-1.9 0.6-4 0.8-6 0.9-3.8 0.1-6.4-1.9-7.5-5.6-0.6-2.2-0.8-4.4-0.6-6.6-0.1-0.9 0-1.8-0.1-2.7 0.1-1.3 0.3-2.6 0.4-3.9 0.1-0.7 0.3-1.5 0.4-2.2-0.1-0.1 0.8-4.3 1.2-4.6q1.2-4 2.9-7.9c2.2-4.6 4.6-9.1 7.5-13.3q0.6-0.9 1.2-1.8c4-6.7 8.8-12.9 14.5-18.6 2.7-2.7 5.9-5.1 9.1-7.4 1.2-0.9 2.9-1.4 4.5-1.7 2.3-0.5 4.1 0.7 4.6 3 0.3 1.5 0.3 3.1 0.1 4.6-0.5 3.1-1.9 5.9-3.4 8.6-3.3 5.8-7.4 10.9-12 15.7-7.5 7.7-16 14.1-25 19.8-1.6 1-2.6 2.3-3.2 3.9-0.1 0.8-0.3 1.5-0.4 2.2-0.1 1.2-0.3 2.5-0.3 3.7zm35-56.9c-1.4 1.1-2.9 2.2-4.4 3.4-6.8 7-13.2 14.5-18.6 22.6q-1.7 2.5-3.2 5.2-2.9 5.4-5.2 11.3c-0.1 0.3-0.2 0.6-0.4 1.3 0.8-0.4 1.3-0.6 1.7-1 5.1-4 10.4-7.8 15.4-12 6.6-5.6 12.3-12.1 16.8-19.6 1.5-2.5 2.7-5.2 3.8-7.8 0.4-1.1 0.6-2.3 0.6-3.5 0-1.7-0.9-2.3-2.5-1.8-1.4 0.5-2.8 1-4 1.9z"/>
		<path id="Path 23" class="s1" d="m716.6 356.3c0 1.2-0.1 2.4 0.1 3.6 0.1 1.2 0.3 2.4 0.6 3.5 0.4 1.1 0.7 2.3 1.3 3.1q0.9 1.2 2.4 1.6c0.9 0.4 2.1 0.4 3.2 0.3 2.4-0.1 4.7-0.8 7-1.6 9.2-3.1 24.7-20.5 27.2-20.7 1.2-0.1 0.4 1.3-0.4 2-0.3 0.4-14.6 14.6-22.8 19.3-2.4 1.2-4.7 2.1-6.5 2.8-1.9 0.6-4 0.8-6 0.9-3.8 0.1-6.4-1.9-7.5-5.6-0.6-2.2-0.8-4.4-0.6-6.6-0.1-0.9 0-1.8-0.1-2.7 0.1-1.3 0.3-2.6 0.4-3.9 0.1-0.7 0.3-1.5 0.4-2.2-0.1-0.1 0.8-4.3 1.2-4.6q1.2-4 2.9-7.9c2.2-4.6 4.6-9.1 7.5-13.3q0.6-0.9 1.2-1.8c4-6.7 8.8-12.9 14.5-18.6 2.7-2.7 5.9-5.1 9.1-7.4 1.2-0.9 2.9-1.4 4.5-1.7 2.3-0.5 4.1 0.7 4.6 3 0.3 1.5 0.3 3.1 0.1 4.6-0.5 3.1-1.9 5.9-3.4 8.6-3.3 5.8-7.4 10.9-12 15.7-7.5 7.7-16 14.1-25 19.8-1.6 1-2.6 2.3-3.2 3.9-0.1 0.8-0.3 1.5-0.4 2.2-0.1 1.2-0.3 2.5-0.3 3.7zm35-56.9c-1.4 1.1-2.9 2.2-4.4 3.4-6.8 7-13.2 14.5-18.6 22.6q-1.7 2.5-3.2 5.2-2.9 5.4-5.2 11.3c-0.1 0.3-0.2 0.6-0.4 1.3 0.8-0.4 1.3-0.6 1.7-1 5.1-4 10.4-7.8 15.4-12 6.6-5.6 12.3-12.1 16.8-19.6 1.5-2.5 2.7-5.2 3.8-7.8 0.4-1.1 0.6-2.3 0.6-3.5 0-1.7-0.9-2.3-2.5-1.8-1.4 0.5-2.8 1-4 1.9z"/>
		<path id="Path 24" class="s1" d="m763.3 335.4c-0.8-0.9-0.6-2-0.1-3.1 0.5-1.1 1.1-2.3 2.5-2.5 1.2 0 2.1 1.1 1.8 2.3-0.2 1-0.5 2-0.9 2.9-0.6 1.4-2.3 1.6-3.3 0.4zm32.4 14.6c-2.6 1.9-19.2 14.7-29.3 16.8-0.9 0.2-1.9 0.3-3.4 0.4-1-0.2-2.6-0.4-4-1-2.5-1-4.2-3-4.6-5.8-0.7-4.7 0.6-9 2.4-13.3q0.1-0.2 0.3-0.4c0.8-1.1 2.1-1.3 3-0.6 0.9 0.7 1.1 1.9 0.1 2.9-2 2.3-2.7 5.1-3.3 8q-0.1 0.7-0.2 1.4c-0.1 3.6 1.9 6.1 5.6 6.2 1.6 0.1 3.3-0.1 4.8-0.5 9.1-2.4 18-9.4 25.6-15.6 0.6-0.4 1.2-0.8 1.8-1 0.8-0.4 1.3-0.6 1.7 0.2 0.5 0.7 0.1 1.7-0.5 2.3z"/>
		<path id="Path 25" class="s1" d="m763.3 335.4c-0.8-0.9-0.6-2-0.1-3.1 0.5-1.1 1.1-2.3 2.5-2.5 1.2 0 2.1 1.1 1.8 2.3-0.2 1-0.5 2-0.9 2.9-0.6 1.4-2.3 1.6-3.3 0.4zm32.4 14.6c-2.6 1.9-19.2 14.7-29.3 16.8-0.9 0.2-1.9 0.3-3.4 0.4-1-0.2-2.6-0.4-4-1-2.5-1-4.2-3-4.6-5.8-0.7-4.7 0.6-9 2.4-13.3q0.1-0.2 0.3-0.4c0.8-1.1 2.1-1.3 3-0.6 0.9 0.7 1.1 1.9 0.1 2.9-2 2.3-2.7 5.1-3.3 8q-0.1 0.7-0.2 1.4c-0.1 3.6 1.9 6.1 5.6 6.2 1.6 0.1 3.3-0.1 4.8-0.5 9.1-2.4 18-9.4 25.6-15.6 0.6-0.4 1.2-0.8 1.8-1 0.8-0.4 1.3-0.6 1.7 0.2 0.5 0.7 0.1 1.7-0.5 2.3z"/>
		<path id="Path 26" class="s1" d="m826 351.2c-0.5 0.5-14.9 9.2-24.1 9.9-2.2 0.1-4.4-0.2-6.5-0.8-2.5-0.7-3.9-2.6-3.9-5.5 0-1.7 0.3-3.1 1.3-4.6 1.3-1.9 2.5-4 4.4-5.4 1-0.7 2.2-1.4 3.3-1.7 1.4-0.5 2.9 0.2 3.7 1.4 0.8 1.3 0.8 2.6-0.2 3.7-0.8 1.1-1.9 2.2-3 2.8-2.6 1.5-5.3 2.8-8.1 4.2 0.1 2.4 0.9 3.5 3.2 4.3 3 0.9 5.9 0.6 8.8-0.2 7.1-1.8 13.5-5 19.5-9.1 0.9-0.6 1.6-1.5 2.4-2.3 1.1-1 1.6-1.3 2.3-0.5 0.7 0.7-1.5 2.8-3.1 3.8zm-30.8-0.7c2.5-0.8 4.6-2 6-4.3-2.8 0.3-4.5 2.1-6 4.3z"/>
		<path id="Path 27" class="s1" d="m826 351.2c-0.5 0.5-14.9 9.2-24.1 9.9-2.2 0.1-4.4-0.2-6.5-0.8-2.5-0.7-3.9-2.6-3.9-5.5 0-1.7 0.3-3.1 1.3-4.6 1.3-1.9 2.5-4 4.4-5.4 1-0.7 2.2-1.4 3.3-1.7 1.4-0.5 2.9 0.2 3.7 1.4 0.8 1.3 0.8 2.6-0.2 3.7-0.8 1.1-1.9 2.2-3 2.8-2.6 1.5-5.3 2.8-8.1 4.2 0.1 2.4 0.9 3.5 3.2 4.3 3 0.9 5.9 0.6 8.8-0.2 7.1-1.8 13.5-5 19.5-9.1 0.9-0.6 1.6-1.5 2.4-2.3 1.1-1 1.6-1.3 2.3-0.5 0.7 0.7-1.5 2.8-3.1 3.8zm-30.8-0.7c2.5-0.8 4.6-2 6-4.3-2.8 0.3-4.5 2.1-6 4.3z"/>
		<path id="Path 28" class="s1" d="m858.7 349.1c-4.9 0.8-8.8 3.8-13.1 5.9-2.4 1.2-4.5 2.7-6.7 3.9-1 0.6-1.4 1.3-1.6 2.5-1 5.3-4.3 8.9-8.9 11.4-0.7 0.3-1.5 0.4-2.3 0.4-1.9 0-3.2-1.5-2.6-3.3 0.6-1.5 1.4-3.1 2.5-4.2 2.1-2.2 4.5-4.1 6.9-6 0.6-0.6 1.3-1.1 2.1-1.6-0.8-1.6-2-2.7-3.1-3.7-1.1-0.9-2.3-1.8-3.2-2.8q-2.4-2.6-0.6-5.6c1.5-2.5 3.6-4.4 6.4-5.2 1-0.3 2.2-0.4 3.2-0.2 1.7 0.2 2.7 1.7 2.7 3.4 0 1.1-0.4 2-1.6 2.4-1.1 0.3-1.9-0.2-2.5-1.2q-0.3-0.6-0.6-1.3c-2 0.2-3.5 1.2-4.7 2.5-1.7 1.7-1.7 2.8 0 4.4 0.2 0.2 0.5 0.4 0.7 0.6 1.7 1.7 3.5 3.4 5.4 5.2 0.4-0.2 1.1-0.6 1.7-1 4.9-2.9 9.9-5.8 14.8-8.7 1-0.6 2.1-1 3.2-1.4 1-0.4 1.9-0.2 2.6 0.6 1 1 0.7 2.7-0.7 3zm-23.4 12.6c-4.1 1.6-9.1 6.6-9.3 9.3 3.5 0.3 8.6-4.8 9.3-9.3z"/>
		<path id="Path 29" class="s1" d="m858.7 349.1c-4.9 0.8-8.8 3.8-13.1 5.9-2.4 1.2-4.5 2.7-6.7 3.9-1 0.6-1.4 1.3-1.6 2.5-1 5.3-4.3 8.9-8.9 11.4-0.7 0.3-1.5 0.4-2.3 0.4-1.9 0-3.2-1.5-2.6-3.3 0.6-1.5 1.4-3.1 2.5-4.2 2.1-2.2 4.5-4.1 6.9-6 0.6-0.6 1.3-1.1 2.1-1.6-0.8-1.6-2-2.7-3.1-3.7-1.1-0.9-2.3-1.8-3.2-2.8q-2.4-2.6-0.6-5.6c1.5-2.5 3.6-4.4 6.4-5.2 1-0.3 2.2-0.4 3.2-0.2 1.7 0.2 2.7 1.7 2.7 3.4 0 1.1-0.4 2-1.6 2.4-1.1 0.3-1.9-0.2-2.5-1.2q-0.3-0.6-0.6-1.3c-2 0.2-3.5 1.2-4.7 2.5-1.7 1.7-1.7 2.8 0 4.4 0.2 0.2 0.5 0.4 0.7 0.6 1.7 1.7 3.5 3.4 5.4 5.2 0.4-0.2 1.1-0.6 1.7-1 4.9-2.9 9.9-5.8 14.8-8.7 1-0.6 2.1-1 3.2-1.4 1-0.4 1.9-0.2 2.6 0.6 1 1 0.7 2.7-0.7 3zm-23.4 12.6c-4.1 1.6-9.1 6.6-9.3 9.3 3.5 0.3 8.6-4.8 9.3-9.3z"/>
	</g>
</svg>